<?xml version="1.0" encoding="utf-8"?>
<!-- Generator: Adobe Illustrator 16.0.0, SVG Export Plug-In . SVG Version: 6.00 Build 0)  -->
<!DOCTYPE svg PUBLIC "-//W3C//DTD SVG 1.1//EN" "http://www.w3.org/Graphics/SVG/1.1/DTD/svg11.dtd">
<svg version="1.1" id="Layer_1" xmlns="http://www.w3.org/2000/svg" xmlns:xlink="http://www.w3.org/1999/xlink" x="0px" y="0px"
	 width="40px" height="40px" viewBox="0 0 40 40" enable-background="new 0 0 40 40" xml:space="preserve">
<g>
	<g>
		<path fill="#1D72EF" d="M19.788,36.453c-9.315,0-16.887-7.582-16.887-16.891S10.473,2.672,19.788,2.672
			c9.309,0,16.884,7.582,16.884,16.891S29.097,36.453,19.788,36.453z M19.788,4.549c-8.284,0-15.017,6.734-15.017,15.014
			c0,8.276,6.732,15.014,15.017,15.014c8.279,0,15.01-6.737,15.01-15.014C34.798,11.283,28.067,4.549,19.788,4.549z"/>
	</g>
	<g>
		<path fill="#1D72EF" d="M14.941,10.883h4.979c2.311,0,3.98,0.339,5.008,1.011c1.029,0.673,1.541,1.736,1.541,3.188
			c0,0.979-0.252,1.793-0.757,2.444c-0.502,0.651-1.229,1.058-2.179,1.229v0.116c1.18,0.217,2.047,0.658,2.598,1.311
			c0.558,0.654,0.832,1.541,0.832,2.656c0,1.504-0.525,2.686-1.577,3.539c-1.048,0.849-2.512,1.277-4.386,1.277h-6.059V10.883z
			 M17.683,17.813h2.642c1.143,0,1.982-0.183,2.508-0.548c0.529-0.361,0.791-0.979,0.791-1.85c0-0.789-0.279-1.357-0.854-1.711
			c-0.566-0.352-1.474-0.526-2.711-0.526h-2.376V17.813z M17.683,20.039v5.311h2.915c1.147,0,2.013-0.222,2.598-0.659
			c0.585-0.439,0.877-1.136,0.877-2.082c0-0.872-0.297-1.519-0.894-1.939c-0.597-0.422-1.501-0.63-2.72-0.63H17.683z"/>
	</g>
</g>
</svg>
