<?xml version="1.0" encoding="utf-8"?>
<!-- Generator: Adobe Illustrator 16.0.0, SVG Export Plug-In . SVG Version: 6.00 Build 0)  -->
<!DOCTYPE svg PUBLIC "-//W3C//DTD SVG 1.1//EN" "http://www.w3.org/Graphics/SVG/1.1/DTD/svg11.dtd">
<svg version="1.1" id="Layer_1" xmlns="http://www.w3.org/2000/svg" xmlns:xlink="http://www.w3.org/1999/xlink" x="0px" y="0px"
	 width="40px" height="40px" viewBox="0 0 40 40" enable-background="new 0 0 40 40" xml:space="preserve">
<g>
	<g>
		<path fill-rule="evenodd" clip-rule="evenodd" fill="#1D72EF" d="M3.686,20.316c0-0.511,0-1.021,0-1.533
			c0.01-0.065,0.027-0.129,0.029-0.204c0.066-1.263,0.266-2.512,0.625-3.726c1.273-4.317,3.839-7.646,7.688-9.977
			c2.119-1.284,4.422-2.029,6.886-2.295c0.355-0.033,0.714-0.063,1.072-0.096c0.508,0,1.021,0,1.534,0
			c0.053,0.008,0.111,0.022,0.167,0.027c0.871,0.037,1.733,0.146,2.582,0.331c4.433,0.975,7.964,3.32,10.558,7.046
			c1.639,2.352,2.589,4.974,2.89,7.823c0.037,0.354,0.072,0.714,0.103,1.069c0,0.512,0,1.022,0,1.533
			c-0.013,0.074-0.026,0.148-0.03,0.223c-0.063,1.122-0.228,2.227-0.518,3.307c-1.136,4.248-3.54,7.591-7.206,10.014
			c-2.268,1.503-4.771,2.368-7.479,2.658c-0.356,0.033-0.71,0.066-1.066,0.103c-0.514,0-1.026,0-1.534,0
			c-0.066-0.012-0.14-0.025-0.203-0.036c-1.834-0.095-3.607-0.471-5.311-1.154c-3.529-1.415-6.299-3.741-8.289-6.976
			c-1.337-2.171-2.133-4.532-2.396-7.07C3.748,21.03,3.717,20.673,3.686,20.316z M31.367,30.726
			c3.531-3.235,5.962-9.053,4.25-15.297C33.869,9.059,28.116,4.295,21.1,4.135C14.268,3.98,8.27,8.27,6.139,14.61
			c-2.094,6.227,0.1,12.478,3.869,16.106c0,0,0.012,0,0.012-0.007c0.004-0.041,0.009-0.08,0.014-0.122
			c0.105-1.188,0.438-2.312,1.078-3.322c0.973-1.547,2.369-2.573,4.021-3.285c0.427-0.186,0.875-0.322,1.317-0.485
			c-0.015-0.012-0.037-0.035-0.06-0.054c-0.82-0.641-1.451-1.445-1.904-2.385c-0.684-1.42-0.805-2.91-0.529-4.447
			c0.363-1.994,1.42-3.486,3.225-4.407c1.85-0.944,3.803-1.054,5.783-0.495c1.671,0.471,2.975,1.445,3.816,2.988
			c0.506,0.939,0.721,1.965,0.771,3.023c0.098,2.258-0.716,4.132-2.429,5.616c-0.062,0.058-0.131,0.109-0.21,0.173
			c0.058,0.02,0.098,0.038,0.133,0.049c1.262,0.394,2.413,0.99,3.442,1.813c1.468,1.175,2.432,2.662,2.761,4.53
			C31.301,30.173,31.327,30.442,31.367,30.726z"/>
	</g>
</g>
</svg>
