<?xml version="1.0" encoding="utf-8"?>
<!-- Generator: Adobe Illustrator 16.0.0, SVG Export Plug-In . SVG Version: 6.00 Build 0)  -->
<!DOCTYPE svg PUBLIC "-//W3C//DTD SVG 1.1//EN" "http://www.w3.org/Graphics/SVG/1.1/DTD/svg11.dtd">
<svg version="1.1" id="Layer_1" xmlns="http://www.w3.org/2000/svg" xmlns:xlink="http://www.w3.org/1999/xlink" x="0px" y="0px"
	 width="125px" height="125px" viewBox="0 0 125 125" enable-background="new 0 0 125 125" xml:space="preserve">
<g>
	<g>
		<g>
			<path fill-rule="evenodd" clip-rule="evenodd" fill="#D3511F" d="M32.738,60.288c4.013-2.417,7.942-4.78,12.117-7.295
				c4.73,7.607,9.373,15.077,14.149,22.765c3.349-4.694,6.417-9.302,9.806-13.664c10.105-13.066,20.282-26.092,30.583-38.997
				c2.252-2.815,5.132-5.138,7.79-7.621c0.745-0.698,1.726-1.159,2.935-1.944c0.063,0.934,0.139,1.472,0.139,2
				c0.014,6.116,0.035,12.241-0.027,18.357c-0.009,0.82-0.228,1.9-0.775,2.416c-11.252,10.597-20.38,22.99-29.718,35.189
				c-5.025,6.561-9.847,13.277-14.689,19.983c-0.945,1.329-1.963,1.73-3.586,1.994c-5.483,0.873-8.605-1.36-11.362-6.106
				c-4.958-8.576-10.697-16.687-16.107-24.999C33.591,61.751,33.225,61.108,32.738,60.288z"/>
			<path fill-rule="evenodd" clip-rule="evenodd" fill="#D3511F" d="M94.471,64.306c2.055,0,3.759,0,5.404,0
				c0.153,0.246,0.299,0.385,0.299,0.526c0.022,10.414,0.299,20.839-0.019,31.238c-0.271,8.704-6.894,14.712-15.559,14.733
				c-17.28,0.033-34.56,0.015-51.846-0.036c-8.886-0.022-15.152-6.273-15.175-15.169c-0.062-17.276-0.075-34.556-0.049-51.837
				c0.009-8.566,6.029-15.273,14.525-15.434c16.036-0.317,32.08-0.184,48.126-0.229c0.227,0,0.463,0.13,0.859,0.241
				c0,1.753,0,3.515,0,5.534c-0.989,0-1.882,0-2.765,0c-14.724-0.004-29.432-0.014-44.148-0.014
				c-7.18,0.005-10.982,3.809-10.996,11.051c-0.036,16.366-0.063,32.74-0.072,49.113c0,7.188,3.818,11.045,10.997,11.062
				c16.545,0.05,33.093,0.084,49.615,0.103c6.998,0.015,10.859-3.879,10.854-10.921c-0.009-9.005-0.04-18.021-0.053-27.033
				C94.471,66.344,94.471,65.443,94.471,64.306z"/>
		</g>
	</g>
</g>
</svg>
