<?xml version="1.0" encoding="utf-8"?>
<!-- Generator: Adobe Illustrator 16.0.0, SVG Export Plug-In . SVG Version: 6.00 Build 0)  -->
<!DOCTYPE svg PUBLIC "-//W3C//DTD SVG 1.1//EN" "http://www.w3.org/Graphics/SVG/1.1/DTD/svg11.dtd">
<svg version="1.1" id="Layer_1" xmlns="http://www.w3.org/2000/svg" xmlns:xlink="http://www.w3.org/1999/xlink" x="0px" y="0px"
	 width="125px" height="125px" viewBox="0 0 125 125" enable-background="new 0 0 125 125" xml:space="preserve">
<g>
	<path fill-rule="evenodd" clip-rule="evenodd" d="M35.073,30.508c-0.132-2.233-0.229-4.472-0.416-6.7
		c-0.163-1.813,0.598-3.008,2.232-3.681c4.618-1.899,9.233-3.789,13.852-5.678c1.68-0.688,3.037-0.237,4.183,1.114
		c1.487,1.763,3.014,3.505,4.526,5.251c1.762,2.062,3.742,2.062,5.556-0.035c1.413-1.631,2.826-3.271,4.183-4.941
		c1.358-1.662,2.872-2.148,4.928-1.268c4.304,1.844,8.659,3.606,13.029,5.309c2.041,0.8,2.892,2.156,2.689,4.313
		c-0.192,2.071-0.325,4.163-0.436,6.249c-0.162,3.181,1.58,4.893,4.807,4.699c2.231-0.137,4.454-0.283,6.688-0.471
		c1.844-0.156,2.973,0.725,3.636,2.34c1.859,4.542,3.692,9.111,5.57,13.647c0.698,1.671,0.354,3.04-1.003,4.193
		c-1.742,1.509-3.489,3.028-5.241,4.542c-2.137,1.824-2.132,3.865,0.021,5.697c1.65,1.402,3.281,2.831,4.953,4.192
		c1.58,1.303,2.064,2.757,1.227,4.73c-1.88,4.461-3.684,8.952-5.465,13.46c-0.711,1.772-1.959,2.513-3.828,2.381
		c-2.38-0.163-4.761-0.346-7.141-0.456c-2.396-0.122-4.32,1.858-4.188,4.284c0.117,2.309,0.259,4.619,0.487,6.917
		c0.192,1.995-0.583,3.262-2.437,3.997c-4.498,1.796-8.979,3.639-13.445,5.495c-1.757,0.728-3.164,0.403-4.381-1.055
		c-1.484-1.779-3.022-3.5-4.521-5.257c-1.65-1.923-3.738-1.984-5.403-0.091c-1.535,1.731-3.06,3.474-4.523,5.267
		c-1.25,1.533-2.688,1.929-4.541,1.159c-4.4-1.829-8.801-3.642-13.248-5.363c-2.046-0.8-2.882-2.167-2.669-4.319
		c0.198-2.08,0.33-4.168,0.437-6.255c0.162-3.21-1.586-4.901-4.821-4.709c-2.229,0.131-4.467,0.283-6.695,0.477
		c-1.717,0.146-2.871-0.578-3.509-2.147c-1.925-4.684-3.835-9.374-5.759-14.058c-0.653-1.609-0.182-2.897,1.078-3.98
		c1.874-1.6,3.749-3.2,5.602-4.816c1.58-1.377,1.641-3.579,0.081-4.978c-1.833-1.65-3.707-3.251-5.601-4.816
		c-1.468-1.209-1.833-2.617-1.114-4.359c1.858-4.547,3.688-9.115,5.541-13.658c0.657-1.625,1.827-2.486,3.635-2.365
		c2.31,0.152,4.62,0.33,6.924,0.441C33.604,35.344,35.315,33.566,35.073,30.508z M20.924,51.468c2.07,1.792,4.173,3.372,5.976,5.235
		c0.824,0.852,1.316,2.219,1.564,3.439c0.972,4.856-0.846,8.517-5.059,11.044c-0.507,0.306-1.059,0.71-1.308,1.195
		c-0.35,0.68-0.764,1.606-0.552,2.218c0.906,2.597,2.106,5.089,3.063,7.668c0.426,1.146,1.074,1.388,2.193,1.275
		c2.223-0.222,4.462-0.384,6.689-0.424c0.841-0.011,1.874,0.172,2.501,0.647c5.197,3.976,6.012,5.964,5.379,12.538
		c-0.045,0.528-0.076,1.053-0.193,1.56c-0.257,1.135,0.137,1.782,1.257,2.188c2.025,0.749,4.096,1.446,5.985,2.461
		c2.188,1.168,3.753,1.073,5.146-1.19c0.841-1.384,1.954-2.679,3.186-3.723c0.885-0.748,2.131-1.257,3.285-1.469
		c4.913-0.876,8.705,0.801,11.232,5.186c0.299,0.508,0.693,1.055,1.185,1.317c0.613,0.323,1.48,0.673,2.037,0.471
		c2.594-0.927,5.089-2.091,7.667-3.073c1.053-0.416,1.509-0.941,1.377-2.128c-0.238-2.228-0.416-4.465-0.427-6.698
		c-0.009-0.903,0.213-2.013,0.766-2.67c4.462-5.46,5.939-6.016,12.989-5.245c0.44,0.04,0.932,0.252,1.316,0.122
		c0.608-0.203,1.434-0.503,1.646-0.983c1.353-3.05,2.563-6.17,3.835-9.284c-0.896-0.774-1.605-1.563-2.482-2.101
		c-4.214-2.553-6.011-6.207-5.043-11.05c0.242-1.215,0.744-2.557,1.555-3.443c1.447-1.591,3.287-2.81,4.806-4.345
		c0.461-0.472,0.708-1.545,0.526-2.183c-0.503-1.702-1.317-3.317-1.989-4.968c-1.728-4.213-1.732-4.294-6.145-3.697
		c-3.515,0.467-6.685,0.375-8.791-3.099c-0.409-0.669-1.326-1.028-1.746-1.701c-0.593-0.962-1.271-2.056-1.316-3.12
		c-0.097-2.218,0.287-4.455,0.287-6.694c0-0.694-0.476-1.768-1.037-2.025c-2.973-1.353-6.036-2.512-9.176-3.782
		c-0.72,0.85-1.495,1.579-2.031,2.445c-2.573,4.152-6.148,6.117-11.028,5.1c-1.221-0.254-2.604-0.704-3.465-1.529
		c-1.914-1.838-3.564-3.966-5.312-5.971c-3.054,1.256-5.92,2.506-8.843,3.605c-1.229,0.455-1.498,1.154-1.377,2.34
		c0.229,2.146,0.416,4.305,0.431,6.471c0.01,0.906-0.188,2.021-0.73,2.695c-4.177,5.276-6.015,5.99-12.775,5.266
		c-0.522-0.05-1.078-0.278-1.54-0.141c-0.623,0.166-1.463,0.475-1.687,0.951C23.4,45.224,22.194,48.338,20.924,51.468z"/>
	<path fill-rule="evenodd" clip-rule="evenodd" d="M62.104,89.353c-14.396-0.067-26.96-12.776-26.859-27.169
		c0.107-14.565,12.776-27.043,27.34-26.92c14.296,0.121,26.815,12.791,26.744,27.062C89.269,76.909,76.653,89.427,62.104,89.353z
		 M41.52,62.103c-0.138,11.682,8.679,20.873,20.108,20.984c12.114,0.113,21.279-8.491,21.44-20.123
		c0.153-12.155-8.527-21.315-20.348-21.433C50.608,41.41,41.656,50.11,41.52,62.103z"/>
</g>
</svg>
