<?xml version="1.0" encoding="utf-8"?>
<!-- Generator: Adobe Illustrator 16.0.0, SVG Export Plug-In . SVG Version: 6.00 Build 0)  -->
<!DOCTYPE svg PUBLIC "-//W3C//DTD SVG 1.1//EN" "http://www.w3.org/Graphics/SVG/1.1/DTD/svg11.dtd">
<svg version="1.1" id="Layer_1" xmlns="http://www.w3.org/2000/svg" xmlns:xlink="http://www.w3.org/1999/xlink" x="0px" y="0px"
	 width="40px" height="40px" viewBox="0 0 40 40" enable-background="new 0 0 40 40" xml:space="preserve">
<g>
	<g>
		<path fill="#1D72EF" d="M19.788,36.203c-9.315,0-16.887-7.582-16.887-16.891S10.473,2.422,19.788,2.422
			c9.309,0,16.884,7.582,16.884,16.891S29.097,36.203,19.788,36.203z M19.788,4.299c-8.284,0-15.017,6.734-15.017,15.014
			c0,8.276,6.732,15.014,15.017,15.014c8.279,0,15.01-6.737,15.01-15.014C34.798,11.033,28.067,4.299,19.788,4.299z"/>
	</g>
</g>
<g>
	<g>
		<path fill-rule="evenodd" clip-rule="evenodd" fill="#1D72EF" d="M23.193,16.063c0,1.279,0.021,2.562-0.004,3.844
			c-0.04,1.856-1.459,3.398-3.234,3.561c-1.979,0.187-3.663-1.01-4.073-2.898c-0.044-0.213-0.06-0.428-0.06-0.643
			c-0.003-2.565-0.03-5.127,0.004-7.687c0.027-1.821,1.385-3.28,3.198-3.544c1.688-0.246,3.393,0.781,3.948,2.434
			c0.151,0.438,0.203,0.922,0.217,1.387c0.03,1.183,0.01,2.363,0.01,3.547H23.193z"/>
		<path fill-rule="evenodd" clip-rule="evenodd" fill="#1D72EF" d="M14.689,30.882c0-0.501,0-0.932,0-1.446c1.35,0,2.683,0,4.046,0
			c0-0.954,0-1.833,0-2.705c-4.146-0.657-6.649-4.092-6.076-8.395c0.438,0,0.88,0,1.413,0c0,0.467-0.004,0.934,0,1.395
			c0.024,3.099,2.42,5.514,5.457,5.503c3-0.004,5.382-2.432,5.412-5.499c0.004-0.449,0-0.899,0-1.441c0.265,0,0.493,0,0.722,0
			c0.214,0,0.427,0,0.63,0c0.696,3.725-1.449,7.701-6.017,8.432c0,0.878,0,1.757,0,2.694c1.347,0,2.662,0,4.02,0
			c0,0.518,0,0.972,0,1.463C21.098,30.882,17.916,30.882,14.689,30.882z"/>
	</g>
</g>
</svg>
