<?xml version="1.0" encoding="utf-8"?>
<!-- Generator: Adobe Illustrator 16.0.0, SVG Export Plug-In . SVG Version: 6.00 Build 0)  -->
<!DOCTYPE svg PUBLIC "-//W3C//DTD SVG 1.1//EN" "http://www.w3.org/Graphics/SVG/1.1/DTD/svg11.dtd">
<svg version="1.1" id="Layer_1" xmlns="http://www.w3.org/2000/svg" xmlns:xlink="http://www.w3.org/1999/xlink" x="0px" y="0px"
	 width="125px" height="125px" viewBox="0 0 125 125" enable-background="new 0 0 125 125" xml:space="preserve">
<g>
	<g>
		<path fill-rule="evenodd" clip-rule="evenodd" fill="#D3511F" d="M68.26,85.782c5.086-2.367,5.629-7.541,9.478-11.32
			c0.168,1.787,0.677,3.005,0.318,3.852c-3.179,7.417-7.95,13.485-15.573,16.701c-5.017,2.124-8.88-0.56-8.573-6.211
			c0.328-6.115,1.296-12.206,2.104-18.291c0.515-3.868,1.303-7.694,1.828-11.559c0.124-0.856-0.358-1.79-0.559-2.69
			c-0.932,0.371-2.234,0.474-2.722,1.156c-1.739,2.465-3.135,5.164-4.813,7.681c-0.378,0.563-1.348,0.732-2.046,1.085
			c-0.144-0.714-0.642-1.579-0.399-2.112c3.352-7.411,7.619-13.974,16.221-16.033c4.569-1.101,7.483,0.714,7.657,5.416
			c0.17,4.339-0.567,8.728-1.079,13.072c-0.559,4.748-1.391,9.466-1.978,14.213C67.943,82.197,68.189,83.712,68.26,85.782z"/>
	</g>
	<g>
		<path fill-rule="evenodd" clip-rule="evenodd" fill="#D3511F" d="M72.998,34.385c0.894,4.15-1.777,8.25-6.03,9.256
			c-3.786,0.9-7.026-1.121-7.926-4.945c-0.961-4.137,1.981-8.711,6.131-9.502C68.99,28.464,72.183,30.582,72.998,34.385z"/>
	</g>
	<g>
		<path fill="#D3511F" d="M80.477,110.798l-0.9-2.165c18.663-7.803,30.716-26.088,30.716-46.571
			c0-20.471-12.053-38.737-30.716-46.538l0.9-2.166c19.544,8.166,32.166,27.282,32.166,48.704
			C112.643,83.497,100.021,102.626,80.477,110.798z"/>
	</g>
	<g>
		<path fill="#D3511F" d="M80.361,97.197l-0.904-2.17c13.094-5.471,21.544-18.294,21.544-32.67c0-14.357-8.45-27.176-21.544-32.649
			l0.904-2.165c13.966,5.838,22.997,19.504,22.997,34.814C103.358,77.682,94.327,91.358,80.361,97.197z"/>
	</g>
	<g>
		<path fill="#D3511F" d="M44.52,110.798c-19.54-8.172-32.162-27.285-32.162-48.706c0-21.436,12.623-40.568,32.162-48.734
			l0.904,2.166c-18.656,7.801-30.716,26.081-30.716,46.568c0,20.471,12.06,38.738,30.716,46.541L44.52,110.798z"/>
	</g>
	<g>
		<path fill="#D3511F" d="M44.642,96.61c-13.973-5.839-23-19.505-23-34.815c0-15.324,9.027-29,23-34.843l0.897,2.17
			C32.45,34.596,23.997,47.416,23.997,61.795c0,14.362,8.453,27.176,21.542,32.646L44.642,96.61z"/>
	</g>
	<g>
		<path fill-rule="evenodd" clip-rule="evenodd" fill="#D3511F" stroke="#000000" stroke-miterlimit="10" d="M80.03,14.593"/>
	</g>
	<g>
		<path fill-rule="evenodd" clip-rule="evenodd" fill="#D3511F" stroke="#000000" stroke-miterlimit="10" d="M80.03,109.748"/>
	</g>
	<g>
		<path fill="#D3511F" stroke="#000000" stroke-miterlimit="10" d="M80.618,109.748"/>
	</g>
	<g>
		<path fill="#D3511F" stroke="#000000" stroke-miterlimit="10" d="M80.618,14.593"/>
	</g>
</g>
</svg>
