<?xml version="1.0" encoding="utf-8"?>
<!-- Generator: Adobe Illustrator 16.0.0, SVG Export Plug-In . SVG Version: 6.00 Build 0)  -->
<!DOCTYPE svg PUBLIC "-//W3C//DTD SVG 1.1//EN" "http://www.w3.org/Graphics/SVG/1.1/DTD/svg11.dtd">
<svg version="1.1" id="Layer_1" xmlns="http://www.w3.org/2000/svg" xmlns:xlink="http://www.w3.org/1999/xlink" x="0px" y="0px"
	 width="40px" height="40px" viewBox="0 0 40 40" enable-background="new 0 0 40 40" xml:space="preserve">
<g>
	<g>
		<path fill="#D3511E" d="M19.288,36.703c-9.315,0-16.887-7.582-16.887-16.891S9.973,2.922,19.288,2.922
			c9.309,0,16.884,7.582,16.884,16.891S28.597,36.703,19.288,36.703z M19.288,4.799c-8.284,0-15.017,6.734-15.017,15.014
			c0,8.276,6.732,15.014,15.017,15.014c8.279,0,15.01-6.737,15.01-15.014C34.298,11.533,27.567,4.799,19.288,4.799z"/>
	</g>
</g>
<g>
	<g>
		<path fill-rule="evenodd" clip-rule="evenodd" fill="#D3511E" d="M22.118,14.965c-2.607,1.424-5.208,2.84-7.813,4.257
			c0.042,0.22,0.103,0.435,0.113,0.648c0.014,0.302,0.009,0.606-0.026,0.904c-0.01,0.144,0.009,0.212,0.133,0.286
			c1.949,1.11,3.891,2.227,5.829,3.348c0.604,0.345,1.207,0.688,1.818,1.041c0.483-0.461,1.036-0.775,1.685-0.919
			c1.823-0.429,3.655,0.771,4.045,2.641c0.374,1.809-0.858,3.642-2.667,3.973c-2.082,0.383-3.957-1.118-4.029-3.235
			c-0.005-0.256,0.029-0.519,0.088-0.765c0.038-0.164,0.002-0.238-0.138-0.319c-1.994-1.147-3.983-2.304-5.973-3.466
			c-0.519-0.299-1.037-0.598-1.558-0.896c-0.159,0.138-0.311,0.291-0.474,0.415c-1.101,0.878-2.632,0.977-3.836,0.252
			c-1.206-0.73-1.844-2.17-1.571-3.531c0.286-1.405,1.379-2.474,2.77-2.69c1.019-0.169,1.918,0.101,2.712,0.751
			c0.118,0.099,0.201,0.128,0.352,0.045c2.516-1.381,5.034-2.754,7.552-4.119c0.138-0.078,0.173-0.152,0.141-0.307
			c-0.371-1.777,0.812-3.56,2.612-3.945c1.789-0.381,3.585,0.77,3.99,2.553c0.496,2.197-1.172,4.229-3.418,4.158
			c-0.827-0.027-1.539-0.354-2.153-0.906C22.248,15.082,22.192,15.029,22.118,14.965z M24.578,14.28
			c0.926,0,1.681-0.757,1.681-1.674c0-0.921-0.755-1.672-1.683-1.672c-0.902,0.011-1.69,0.767-1.695,1.65
			C22.867,13.49,23.658,14.278,24.578,14.28z M22.912,27.866c0.003,0.918,0.767,1.675,1.685,1.669
			c0.907-0.003,1.662-0.765,1.662-1.669c0-0.923-0.755-1.683-1.675-1.683C23.666,26.184,22.912,26.938,22.912,27.866z
			 M12.738,20.251c0.006-0.921-0.74-1.683-1.659-1.694c-0.912-0.009-1.67,0.746-1.684,1.672c-0.006,0.906,0.743,1.673,1.646,1.679
			C11.969,21.917,12.73,21.174,12.738,20.251z"/>
	</g>
</g>
</svg>
